<svg width="32" height="32" viewBox="0 0 32 32" fill="none" xmlns="http://www.w3.org/2000/svg">
<rect width="32" height="32" rx="3" fill="#EBF4FF"/>
<rect x="0.5" y="0.5" width="31" height="31" rx="2.5" stroke="#004EAA" stroke-opacity="0.1"/>
<path d="M13 7H8C7.44772 7 7 7.44772 7 8V13C7 13.5523 7.44772 14 8 14H13C13.5523 14 14 13.5523 14 13V8C14 7.44772 13.5523 7 13 7Z" stroke="#004EAA" stroke-width="2" stroke-linecap="round" stroke-linejoin="round"/>
<path d="M13 18H8C7.44772 18 7 18.4477 7 19V24C7 24.5523 7.44772 25 8 25H13C13.5523 25 14 24.5523 14 24V19C14 18.4477 13.5523 18 13 18Z" stroke="#004EAA" stroke-width="2" stroke-linecap="round" stroke-linejoin="round"/>
<path d="M18 8H25" stroke="#004EAA" stroke-width="2" stroke-linecap="round" stroke-linejoin="round"/>
<path d="M18 13H25" stroke="#004EAA" stroke-width="2" stroke-linecap="round" stroke-linejoin="round"/>
<path d="M18 19H25" stroke="#004EAA" stroke-width="2" stroke-linecap="round" stroke-linejoin="round"/>
<path d="M18 24H25" stroke="#004EAA" stroke-width="2" stroke-linecap="round" stroke-linejoin="round"/>
</svg>
