<svg width="15" height="14" viewBox="0 0 15 14" fill="none" xmlns="http://www.w3.org/2000/svg">
<path d="M0 1.62626C0 1.15487 0.166421 0.765984 0.499249 0.459596C0.832077 0.153194 1.26477 0 1.7973 0C2.32032 0 2.74349 0.150832 3.06682 0.452525C3.39964 0.763636 3.56607 1.16901 3.56607 1.66869C3.56607 2.12121 3.40441 2.49831 3.08108 2.8C2.74825 3.11111 2.31081 3.26667 1.76877 3.26667H1.7545C1.23148 3.26667 0.808313 3.11111 0.484985 2.8C0.161657 2.48889 0 2.09764 0 1.62626ZM0.185435 14V4.55354H3.3521V14H0.185435ZM5.10661 14H8.27327V8.72525C8.27327 8.39528 8.31132 8.14073 8.38739 7.96162C8.52052 7.64107 8.7226 7.37002 8.99362 7.14848C9.26464 6.92693 9.6046 6.81616 10.0135 6.81616C11.0786 6.81616 11.6111 7.52794 11.6111 8.95152V14H14.7778V8.58384C14.7778 7.18855 14.4449 6.1303 13.7793 5.40909C13.1136 4.68788 12.234 4.32727 11.1404 4.32727C9.91366 4.32727 8.95796 4.8505 8.27327 5.89697V5.92525H8.25901L8.27327 5.89697V4.55354H5.10661C5.12562 4.85521 5.13514 5.79326 5.13514 7.36768C5.13514 8.94208 5.12562 11.1529 5.10661 14Z" fill="#0066C8"/>
</svg>
