<svg width="24" height="24" viewBox="0 0 24 24" fill="none" xmlns="http://www.w3.org/2000/svg">
<path d="M20.3846 10.6923H3.42308C2.08485 10.6923 1 11.7771 1 13.1153V20.3846C1 21.7228 2.08485 22.8076 3.42308 22.8076H20.3846C21.7228 22.8076 22.8077 21.7228 22.8077 20.3846V13.1153C22.8077 11.7771 21.7228 10.6923 20.3846 10.6923Z" stroke="#114A4D" stroke-width="2" stroke-linecap="round" stroke-linejoin="round"/>
<path d="M11.9035 5.84615C13.2418 5.84615 14.3266 4.76131 14.3266 3.42308C14.3266 2.08485 13.2418 1 11.9035 1C10.5653 1 9.48047 2.08485 9.48047 3.42308C9.48047 4.76131 10.5653 5.84615 11.9035 5.84615Z" stroke="#114A4D" stroke-width="2" stroke-linecap="round" stroke-linejoin="round"/>
<path d="M11.9043 5.84619V10.6923" stroke="#114A4D" stroke-width="2" stroke-linecap="round" stroke-linejoin="round"/>
<circle cx="8.26916" cy="16.75" r="1.21154" fill="#114A4D"/>
<circle cx="15.5387" cy="16.75" r="1.21154" fill="#114A4D"/>
</svg>
